<svg id="Layer_1" data-name="Layer 1" xmlns="http://www.w3.org/2000/svg" viewBox="0 0 120 80"><defs><style>.cls-1{fill:#fff;}</style></defs><title>logo</title><path d="M982,961h38v39.47H982V961Zm19.93,6.65-1.28-.57c-0.74.87-2.12,1.73-2.14,2.62-0.17,7.64-.15,15.28,0,22.91,0,0.77,1.19,1.51,1.83,2.26,0.53-.66,1.52-1.31,1.53-2C1002,984.49,1001.93,976.07,1001.93,967.65Z" transform="translate(-941 -961)"/><path d="M1061,1002v39h-40v-39h40Zm-18.08,9.8c2.13,0,3.5.23,4.75-.07a11.55,11.55,0,0,0,2.94-1.73c-1-.61-1.9-1.71-2.88-1.75-4.47-.19-9-0.16-13.43,0-0.84,0-1.64,1.07-2.46,1.65,0.77,0.63,1.46,1.59,2.34,1.81a31.54,31.54,0,0,0,5.13.4c0,7-.1,13.59.08,20.19,0,1.31,1.17,2.58,1.79,3.88l1.73-.61V1011.8Z" transform="translate(-941 -961)"/><path d="M941,1001V961h39v40H941Zm30.73-27.94c1.24-3.13-.54-4.58-3.07-5.68a15.37,15.37,0,1,0,.24,28c2.58-1.17,4.06-2.69,2.72-5.69-7.61,4.58-13.45,4.47-17.61-.28a12.7,12.7,0,0,1-.22-15.68C957.68,968.94,963.2,968.71,971.73,973.06Z" transform="translate(-941 -961)"/><path d="M1021,961h40v40h-40V961Zm11.36,33.61c4.47,1,3.21-2.24,3.34-4.18,0.16-2.34,0-4.71,0-7.23,5.59,3.29,6,11.31,14.48,11.93l-9.88-12.64c6.26-2,8.23-4.92,6.93-9.75-1.37-5.1-5.91-6.59-14.91-4.75v26.62Z" transform="translate(-941 -961)"/><path d="M980,1041H941v-39h39v39Zm-28.58-32.69-1,.29L945.12,1036c5.41-.48,4-4.5,4.75-6.95,0.92-3.1,1.41-6.33,2.3-10.51l8.16,18.31,8.26-18.58c0.79,4.18,1.33,7.22,1.94,10.24,1.33,6.64,1.35,6.64,4.89,6.87l-5.24-26.92h-1L960.34,1029Z" transform="translate(-941 -961)"/><path d="M1020,1041H982v-38.74h38V1041Zm-19.14-12-8.95-20.78-1,.21-5.19,27,2.06,0.61c4.09-4.52,2.26-11.27,5.05-17.12l8,17.94,8.16-18.62c0.9,4.57,1.55,7.6,2.08,10.64,1.14,6.61,1.12,6.62,4.82,6.13l-5.31-26.72-1,.08Z" transform="translate(-941 -961)"/><path class="cls-1" d="M1020,1041v-38.74H982V1041h-2v-39H941v-1h39V961h2v39.47h38V961h1v40h40v1h-40v39h-1Z" transform="translate(-941 -961)"/><path class="cls-1" d="M1001.93,967.65c0,8.42,0,16.84-.07,25.25,0,0.66-1,1.32-1.53,2-0.64-.75-1.82-1.5-1.83-2.26-0.14-7.64-.16-15.28,0-22.91,0-.89,1.39-1.75,2.14-2.62Z" transform="translate(-941 -961)"/><path class="cls-1" d="M1042.92,1011.8v23.76l-1.73.61c-0.63-1.29-1.76-2.57-1.79-3.88-0.18-6.6-.08-13.21-0.08-20.19a31.54,31.54,0,0,1-5.13-.4c-0.87-.21-1.56-1.18-2.34-1.81,0.82-.57,1.62-1.61,2.46-1.65,4.47-.17,9-0.19,13.43,0,1,0,1.92,1.14,2.88,1.75a11.55,11.55,0,0,1-2.94,1.73C1046.43,1012,1045,1011.8,1042.92,1011.8Z" transform="translate(-941 -961)"/><path class="cls-1" d="M971.73,973.06c-8.53-4.35-14-4.13-17.93.71a12.7,12.7,0,0,0,.22,15.68c4.16,4.75,10,4.86,17.61.28,1.33,3-.14,4.53-2.72,5.69a15.36,15.36,0,1,1-.24-28C971.19,968.49,973,969.94,971.73,973.06Z" transform="translate(-941 -961)"/><path class="cls-1" d="M1032.36,994.61V968c9-1.84,13.54-.35,14.91,4.75,1.3,4.83-.67,7.73-6.93,9.75l9.88,12.64c-8.52-.62-8.89-8.65-14.48-11.93,0,2.52.12,4.88,0,7.23C1035.56,992.37,1036.82,995.6,1032.36,994.61Zm3.78-23.68v8.22c3.6-.2,7.76.85,7.69-4.25S1039.75,970.76,1036.14,970.93Z" transform="translate(-941 -961)"/><path class="cls-1" d="M951.42,1008.31l8.92,20.69,8.82-20.53h1l5.24,26.92c-3.54-.23-3.56-0.23-4.89-6.87-0.61-3-1.15-6.07-1.94-10.24l-8.26,18.58-8.16-18.31c-0.89,4.18-1.39,7.41-2.3,10.51-0.73,2.45.66,6.47-4.75,6.95l5.26-27.39Z" transform="translate(-941 -961)"/><path class="cls-1" d="M1000.86,1029l8.82-20.59,1-.08,5.31,26.72c-3.71.49-3.68,0.48-4.82-6.13-0.53-3-1.18-6.07-2.08-10.64l-8.16,18.62-8-17.94c-2.8,5.85-1,12.6-5.05,17.12l-2.06-.61,5.19-27,1-.21Z" transform="translate(-941 -961)"/><path d="M1036.14,970.93c3.61-.17,7.62-1,7.69,4s-4.08,4-7.69,4.25v-8.22Z" transform="translate(-941 -961)"/></svg>